<svg xmlns="http://www.w3.org/2000/svg" viewBox="0 0 1235 650" role="img" aria-labelledby="title">
  <title id="title">Bandera de los Estados Unidos</title>
  <path fill="#B22234" d="M0 0h1235v650H0z"/>
  <path fill="#FFF" d="M0 50h1235v50H0zm0 100h1235v50H0zm0 100h1235v50H0zm0 100h1235v50H0zm0 100h1235v50H0zm0 100h1235v50H0z"/>
  <path fill="#3C3B6E" d="M0 0h494v350H0z"/>
  <defs>
    <path id="star" d="m0-20 4.49 13.82 14.531.001-11.756 8.54 4.491 13.819L0 7.64l-11.756 8.54 4.491-13.819-11.756-8.54 14.531-.001z"/>
    <g id="row-six">
      <use href="#star" transform="translate(41.167 35)"/>
      <use href="#star" transform="translate(123.5 35)"/>
      <use href="#star" transform="translate(205.833 35)"/>
      <use href="#star" transform="translate(288.167 35)"/>
      <use href="#star" transform="translate(370.5 35)"/>
      <use href="#star" transform="translate(452.833 35)"/>
    </g>
    <g id="row-five">
      <use href="#star" transform="translate(82.333 70)"/>
      <use href="#star" transform="translate(164.667 70)"/>
      <use href="#star" transform="translate(247 70)"/>
      <use href="#star" transform="translate(329.333 70)"/>
      <use href="#star" transform="translate(411.667 70)"/>
    </g>
  </defs>
  <g fill="#FFF">
    <use href="#row-six"/>
    <use href="#row-five"/>
    <use href="#row-six" transform="translate(0 70)"/>
    <use href="#row-five" transform="translate(0 70)"/>
    <use href="#row-six" transform="translate(0 140)"/>
    <use href="#row-five" transform="translate(0 140)"/>
    <use href="#row-six" transform="translate(0 210)"/>
    <use href="#row-five" transform="translate(0 210)"/>
    <use href="#row-six" transform="translate(0 280)"/>
  </g>
</svg>
